<svg xmlns="http://www.w3.org/2000/svg" width="24.503" height="28.003"><path data-name="パス 49" d="M0 25.378a2.626 2.626 0 002.625 2.625h19.253a2.626 2.626 0 002.622-2.625V10.501H0zm17.5-10.501a.878.878 0 01.875-.875h1.75a.878.878 0 01.875.875v1.75a.875.875 0 01-.875.875h-1.75a.878.878 0 01-.875-.875zm0 7a.875.875 0 01.875-.875h1.75a.875.875 0 01.875.876v1.75a.875.875 0 01-.875.875h-1.75a.875.875 0 01-.875-.875zm-7-7a.878.878 0 01.875-.875h1.75a.878.878 0 01.875.875v1.75a.875.875 0 01-.875.875h-1.75a.878.878 0 01-.875-.875zm0 7a.878.878 0 01.875-.875h1.75a.875.875 0 01.875.876v1.75a.875.875 0 01-.875.875h-1.75a.878.878 0 01-.875-.875zm-7-7a.876.876 0 01.875-.875h1.75a.878.878 0 01.875.875v1.75a.878.878 0 01-.875.875H4.376a.876.876 0 01-.876-.875zm0 7a.876.876 0 01.875-.875h1.75a.878.878 0 01.875.876v1.75a.878.878 0 01-.875.875H4.376a.876.876 0 01-.876-.875zM21.878 3.5h-2.626V1.7a1.746 1.746 0 00-1.75-1.7 1.746 1.746 0 00-1.75 1.7v1.8h-7V1.7A1.746 1.746 0 007 0a1.746 1.746 0 00-1.75 1.7v1.8H2.625A2.625 2.625 0 000 6.126V8.75h24.5V6.126A2.626 2.626 0 0021.878 3.5z" fill="#116c91"/></svg>