<svg xmlns="http://www.w3.org/2000/svg" width="18" height="18"><path data-name="パス 10937" d="M11.047 6.95a4.893 4.893 0 00-1.267-.913.419.419 0 00-.484.081l-.154.154a1.818 1.818 0 00-.521 1.069.423.423 0 00.231.434 2.935 2.935 0 01.8.571 2.957 2.957 0 010 4.176l-2.641 2.643a2.952 2.952 0 01-4.177 0 2.952 2.952 0 010-4.177l1.613-1.611a.419.419 0 00.113-.394 6.083 6.083 0 01-.168-1.333.422.422 0 00-.72-.288L1.443 9.597a4.919 4.919 0 000 6.961 4.919 4.919 0 006.957-.001c2.888-2.888 2.767-2.752 2.986-3.024a4.928 4.928 0 00-.339-6.583zm5.51-5.51a4.919 4.919 0 00-6.961 0C6.708 4.331 6.83 4.195 6.61 4.467a4.928 4.928 0 00.343 6.583 4.893 4.893 0 001.266.916.42.42 0 00.481-.084l.154-.154a1.818 1.818 0 00.521-1.069.423.423 0 00-.231-.434 2.934 2.934 0 01-.8-.571 2.957 2.957 0 010-4.176l2.643-2.644a2.952 2.952 0 014.177 0 2.952 2.952 0 010 4.177l-1.611 1.612a.419.419 0 00-.113.394 6.083 6.083 0 01.167 1.33.422.422 0 00.72.288l2.229-2.231a4.919 4.919 0 00.001-6.961z" fill="#3197bc"/></svg>