<svg xmlns="http://www.w3.org/2000/svg" width="437.669" height="86.846"><defs><clipPath id="a"><path data-name="長方形 6" fill="#3197bc" d="M0 0h437.669v86.846H0z"/></clipPath></defs><path data-name="パス 11" d="M123.371 26.424h-6.681v40.372h22.829V60.78h-16.148z" fill="#3197bc"/><path data-name="長方形 4" fill="#3197bc" d="M147.346 26.424h6.686v40.372h-6.686z"/><path data-name="パス 12" d="M164.948 66.796h6.686V49.365h14.292v-5.96h-14.293V32.446h15.47v-6.022h-22.155z" fill="#3197bc"/><path data-name="パス 13" d="M203.133 48.735h14.688v-5.962h-14.688V32.446h15.525v-6.022h-22.21v40.372h23.055V60.78h-16.37z" fill="#3197bc"/><g data-name="グループ 2"><g data-name="グループ 1" clip-path="url(#a)" fill="#3197bc"><path data-name="パス 14" d="M271.512 31.185c-3.573-3.395-8.778-5.046-15.914-5.046a69.652 69.652 0 00-10.508.809l-.772.116v39.517l.8.1a79 79 0 008.961.46c7.617 0 13.617-2.01 17.345-5.814 3.729-3.736 5.7-9.145 5.7-15.626 0-6.143-1.893-11.026-5.618-14.511m-16.469 30.103a35.907 35.907 0 01-4.029-.178V32.297a28.179 28.179 0 014.812-.366c4.806 0 8.493 1.278 10.948 3.8 2.316 2.377 3.48 5.785 3.452 10.132 0 9.95-5.394 15.43-15.182 15.43"/><path data-name="パス 15" d="M292.546 48.735h14.683v-5.962h-14.683V32.446h15.526v-6.022h-22.213v40.372h23.055V60.78h-16.368z"/><path data-name="パス 16" d="M330.193 43.18c-5.31-2.1-6.932-3.632-6.932-6.567 0-2.418 1.923-4.857 6.214-4.857a13.874 13.874 0 016.743 1.719l.948.526 1.928-5.826-.654-.371a17.5 17.5 0 00-8.8-2.01c-7.726-.001-13.126 4.684-13.126 11.386 0 5.432 3.367 9.178 10.581 11.789 4.81 1.887 6.52 3.664 6.52 6.788 0 3.485-2.681 5.652-7 5.652a16.167 16.167 0 01-8.272-2.382l-1-.627-1.761 5.977.556.376c2.271 1.551 6.539 2.675 10.14 2.675 10.429 0 14.134-6.5 14.134-12.069 0-5.794-2.963-9.322-10.221-12.18"/><path data-name="長方形 5" d="M349.477 26.424h6.689v40.372h-6.689z"/><path data-name="パス 17" d="M383.392 50.56h7.679v9.954a16.581 16.581 0 01-5.593.722c-8.432 0-13.672-5.6-13.672-14.625 0-8.982 5.477-14.567 14.287-14.567a18.194 18.194 0 017.982 1.578l.943.428 1.686-5.823-.689-.341a24.167 24.167 0 00-9.813-1.862c-12.719 0-21.3 8.363-21.363 20.812 0 6.071 2.018 11.541 5.544 15.017 3.7 3.6 8.524 5.343 14.753 5.343a35.3 35.3 0 0011.915-2.17l.595-.219v-20.09h-14.254z"/><path data-name="パス 18" d="M431.261 26.424V43.47c0 4.6.085 8.22.274 11.614a116.747 116.747 0 00-4.943-8.74l-12.369-19.92h-6.732v40.372h6.409V49.413c0-4.716-.063-8.438-.2-11.983 1.43 2.768 3.167 5.8 5.367 9.386l12.266 19.98h6.338V26.424z"/><path data-name="パス 19" d="M12.768 73.827V0H0v86.846h30.287V73.827z"/><path data-name="パス 20" d="M42.577 0H25.058v13.023h17.519c16.436 0 29.812 13.639 29.812 30.4s-13.376 30.4-29.812 30.4v13.023c23.479 0 42.578-19.479 42.578-43.419S66.056 0 42.577 0"/></g></g></svg>