<?xml version="1.0" encoding="UTF-8"?><svg id="_レイヤー_2" xmlns="http://www.w3.org/2000/svg" viewBox="0 0 17 12.75"><defs><style>.cls-1{fill:#c5dbe3;}</style></defs><g id="_レイヤー_1-2"><path id="_パス_11244" class="cls-1" d="m16.68,4.21c-.74.58-1.73,1.32-5.11,3.78-.67.49-1.88,1.59-3.07,1.58-1.18,0-2.36-1.07-3.06-1.58C2.05,5.53,1.07,4.79.32,4.21c-.09-.07-.21-.05-.28.04C.02,4.28,0,4.33,0,4.37v6.79c0,.88.71,1.59,1.59,1.59h13.81c.88,0,1.59-.71,1.59-1.59h0v-6.79c0-.11-.09-.2-.2-.2-.04,0-.09.02-.12.04Zm-8.18,4.29c.77.01,1.88-.97,2.44-1.38,4.41-3.2,4.74-3.48,5.76-4.27.19-.15.3-.38.31-.63v-.63c0-.88-.71-1.59-1.59-1.59H1.59C.71,0,0,.71,0,1.59h0v.63c0,.24.11.48.31.63,1.02.79,1.35,1.08,5.76,4.27.56.4,1.67,1.39,2.44,1.37Z"/></g></svg>