<svg xmlns="http://www.w3.org/2000/svg" width="15" height="20" viewBox="0 0 15 20">
  <path id="パス_11244" data-name="パス 11244" d="M3.75-7.969a.47.47,0,0,0,.469.469H5.781a.47.47,0,0,0,.469-.469V-9.531A.47.47,0,0,0,5.781-10H4.219a.47.47,0,0,0-.469.469Zm2.5,3.75V-5.781a.47.47,0,0,0-.469-.469H4.219a.47.47,0,0,0-.469.469v1.563a.47.47,0,0,0,.469.469H5.781A.47.47,0,0,0,6.25-4.219ZM4.219-11.25H5.781a.47.47,0,0,0,.469-.469v-1.562a.47.47,0,0,0-.469-.469H4.219a.47.47,0,0,0-.469.469v1.563A.47.47,0,0,0,4.219-11.25ZM12.5-17.5H2.5A2.5,2.5,0,0,0,0-15V1.563a.938.938,0,0,0,1.875,0V-15a.625.625,0,0,1,.625-.625h10a.625.625,0,0,1,.625.625V1.563a.938.938,0,0,0,1.875,0V-15A2.5,2.5,0,0,0,12.5-17.5Zm-1.719,3.75H9.219a.47.47,0,0,0-.469.469v1.563a.47.47,0,0,0,.469.469h1.563a.47.47,0,0,0,.469-.469v-1.562A.47.47,0,0,0,10.781-13.75Zm0,3.75c-1.82,0-2.031.211-2.031.469v1.563a.47.47,0,0,0,.469.469h1.563a.47.47,0,0,0,.469-.469V-9.531A.47.47,0,0,0,10.781-10Zm0,3.75H9.219a.47.47,0,0,0-.469.469c0,1.82.211,2.031.469,2.031h1.563a.47.47,0,0,0,.469-.469V-5.781A.47.47,0,0,0,10.781-6.25ZM7.469-2.5A1.927,1.927,0,0,0,5.625-.543V1.563a.935.935,0,0,0,.938.938H8.438a.937.937,0,0,0,.938-.937V-.569A1.924,1.924,0,0,0,7.469-2.5Z" transform="translate(0 17.5)" fill="#fff"/>
</svg>
