<?xml version="1.0" encoding="UTF-8"?><svg id="_レイヤー_2" xmlns="http://www.w3.org/2000/svg" viewBox="0 0 14.87 17"><defs><style>.cls-1{fill:#c5dbe3;}</style></defs><g id="_レイヤー_1-2"><path id="_パス_11244" class="cls-1" d="m7.44,8.5c2.35,0,4.25-1.9,4.25-4.25S9.78,0,7.44,0,3.19,1.9,3.19,4.25h0c0,2.35,1.9,4.25,4.25,4.25Zm2.97,1.06h-.55c-.76.35-1.58.53-2.42.53-.84,0-1.66-.18-2.42-.53h-.55c-2.46,0-4.46,2-4.46,4.46v1.38c0,.88.71,1.59,1.59,1.59h11.69c.88,0,1.59-.71,1.59-1.59v-1.38c0-2.46-2-4.46-4.46-4.46h0Z"/></g></svg>