<svg xmlns="http://www.w3.org/2000/svg" width="20.447" height="17.889" viewBox="0 0 20.447 17.889">
  <path id="パス_32" data-name="パス 32" d="M20.166,41.624a.954.954,0,0,0,0-1.354l-5.111-5.115A.957.957,0,1,0,13.7,36.508l3.474,3.474-9.827,0a.958.958,0,0,0,0,1.917h9.827L13.7,45.377a.957.957,0,0,0,1.354,1.354ZM6.709,33.917a.958.958,0,0,0,0-1.917H3.514A3.514,3.514,0,0,0,0,35.514V46.375a3.514,3.514,0,0,0,3.514,3.514H6.709a.958.958,0,0,0,0-1.917H3.514a1.6,1.6,0,0,1-1.6-1.6V35.514a1.6,1.6,0,0,1,1.6-1.6Z" transform="translate(0 -32)" fill="#056c91"/>
</svg>
