<?xml version="1.0" encoding="UTF-8"?><svg id="_レイヤー_2" xmlns="http://www.w3.org/2000/svg" viewBox="0 0 14.88 17"><defs><style>.cls-1{fill:#c5dbe3;}</style></defs><g id="_レイヤー_1-2"><path id="_パス_11244" class="cls-1" d="m14.88,12.75v-2.66c0-.88-.71-1.59-1.59-1.59h-.53V3.72h-2.12v4.78h-2.12V3.72h-2.12v4.78h-2.12V3.72h-2.13v4.78h-.53c-.88,0-1.59.71-1.59,1.59h0v2.66c.93,0,1.04-1.06,2.48-1.06s1.55,1.06,2.48,1.06,1.05-1.06,2.47-1.06,1.56,1.06,2.48,1.06,1.04-1.06,2.48-1.06,1.54,1.06,2.47,1.06Zm0,4.25v-3.19c-1.44,0-1.56-1.06-2.47-1.06s-1.04,1.06-2.48,1.06-1.55-1.06-2.48-1.06-1.05,1.06-2.47,1.06-1.55-1.06-2.48-1.06S1.44,13.81,0,13.81v3.19h14.87ZM3.19,3.19c.59,0,1.06-.45,1.06-1.33S3.59,0,3.19,0c0,1.36-1.06,1.1-1.06,2.12,0,.58.47,1.06,1.06,1.06,0,0,0,0,0,0Zm4.25,0c.59,0,1.06-.45,1.06-1.33s-.66-1.86-1.06-1.86c0,1.36-1.06,1.1-1.06,2.12,0,.58.47,1.06,1.05,1.06,0,0,0,0,0,0Zm4.25,0c.59,0,1.06-.45,1.06-1.33S12.09,0,11.69,0c0,1.36-1.06,1.1-1.06,2.12,0,.58.47,1.06,1.06,1.06,0,0,0,0,0,0Z"/></g></svg>