<?xml version="1.0" encoding="UTF-8"?><svg id="_レイヤー_2" xmlns="http://www.w3.org/2000/svg" viewBox="0 0 19.12 14.87"><defs><style>.cls-1{fill:#c5dbe3;}</style></defs><g id="_レイヤー_1-2"><path id="_パス_11244" class="cls-1" d="m17.53,0H1.59C.71,0,0,.71,0,1.59v.53h19.12v-.53c0-.88-.71-1.59-1.59-1.59ZM0,13.28c0,.88.71,1.59,1.59,1.59h15.94c.88,0,1.59-.71,1.59-1.59V3.19H0v10.09Zm11.69-7.7c0-.15.12-.27.26-.27,0,0,0,0,0,0h4.78c.15,0,.27.12.27.27v.53c0,.15-.12.27-.27.27h-4.78c-.15,0-.27-.12-.27-.27v-.53Zm0,2.12c0-.15.12-.27.27-.27h4.78c.15,0,.27.12.27.27v.53c0,.15-.12.27-.27.27h-4.78c-.15,0-.27-.12-.27-.27v-.53Zm0,2.12c0-.15.12-.27.27-.27h4.78c.15,0,.27.12.27.27v.53c0,.15-.12.27-.27.27h-4.78c-.15,0-.27-.12-.27-.27h0v-.53Zm-5.84-4.52c1.17,0,2.12.95,2.13,2.12,0,1.17-.95,2.12-2.13,2.12-1.17,0-2.12-.95-2.12-2.12,0-1.17.95-2.12,2.12-2.12Zm-3.62,6.78c.29-.87,1.1-1.47,2.02-1.47h.27c.42.17.87.27,1.32.27.45,0,.9-.09,1.32-.27h.27c.92,0,1.74.59,2.03,1.47.07.28-.09.57-.37.64-.05.01-.1.02-.15.02H2.74c-.29,0-.53-.22-.53-.51,0-.05,0-.1.02-.14Z"/></g></svg>