<svg xmlns="http://www.w3.org/2000/svg" width="18" height="18" viewBox="0 0 18 18">
  <path id="パス_10937" data-name="パス 10937" d="M11.047-8.8A4.893,4.893,0,0,0,9.78-9.713a.419.419,0,0,0-.484.081l-.154.154a1.818,1.818,0,0,0-.521,1.069.423.423,0,0,0,.231.434,2.935,2.935,0,0,1,.8.571,2.957,2.957,0,0,1,0,4.176L7.011-.585a2.952,2.952,0,0,1-4.177,0,2.952,2.952,0,0,1,0-4.177L4.447-6.373a.419.419,0,0,0,.113-.394A6.083,6.083,0,0,1,4.392-8.1a.422.422,0,0,0-.72-.288L1.443-6.153a4.919,4.919,0,0,0,0,6.961A4.919,4.919,0,0,0,8.4.807c2.888-2.888,2.767-2.752,2.986-3.024A4.928,4.928,0,0,0,11.047-8.8Zm5.51-5.51a4.919,4.919,0,0,0-6.961,0C6.708-11.419,6.83-11.555,6.61-11.283A4.928,4.928,0,0,0,6.953-4.7a4.893,4.893,0,0,0,1.266.916A.42.42,0,0,0,8.7-3.868l.154-.154a1.818,1.818,0,0,0,.521-1.069.423.423,0,0,0-.231-.434,2.934,2.934,0,0,1-.8-.571,2.957,2.957,0,0,1,0-4.176l2.643-2.644a2.952,2.952,0,0,1,4.177,0,2.952,2.952,0,0,1,0,4.177L13.553-7.127a.419.419,0,0,0-.113.394,6.083,6.083,0,0,1,.167,1.33.422.422,0,0,0,.72.288l2.229-2.231A4.919,4.919,0,0,0,16.557-14.307Z" transform="translate(0 15.75)" fill="#3197bc"/>
</svg>
