<svg xmlns="http://www.w3.org/2000/svg" width="21.249" height="17" viewBox="0 0 21.249 17">
  <path id="パス_11240" data-name="パス 11240" d="M-3.188-6.375a4.25,4.25,0,0,0,4.25-4.25,4.25,4.25,0,0,0-4.25-4.25,4.25,4.25,0,0,0-4.25,4.25A4.25,4.25,0,0,0-3.188-6.375ZM-.213-5.312H-.767a5.786,5.786,0,0,1-2.421.531,5.8,5.8,0,0,1-2.421-.531h-.554A4.464,4.464,0,0,0-10.625-.85V.531A1.594,1.594,0,0,0-9.031,2.125H.1A1.594,1.594,0,0,1,.01,1.418L.236-.6l.04-.369.262-.262L3.1-3.8A4.417,4.417,0,0,0-.213-5.312Zm1.5,4.824L1.066,1.537a.529.529,0,0,0,.584.584L3.672,1.9,8.251-2.683,5.87-5.063Zm9.1-5.459L9.134-7.205a.8.8,0,0,0-1.122,0L6.757-5.95l-.136.136L9-3.433l1.388-1.388A.8.8,0,0,0,10.393-5.947Z" transform="translate(10.625 14.875)" fill="#fff"/>
</svg>
