<svg id="LOGO" xmlns="http://www.w3.org/2000/svg" xmlns:xlink="http://www.w3.org/1999/xlink" width="437.669" height="86.846" viewBox="0 0 437.669 86.846">
  <defs>
    <clipPath id="clip-path">
      <rect id="長方形_6" data-name="長方形 6" width="437.669" height="86.846" fill="#3197bc"/>
    </clipPath>
  </defs>
  <path id="パス_11" data-name="パス 11" d="M184.781,39.544H178.1V79.916h22.829V73.9H184.781Z" transform="translate(-61.41 -13.12)" fill="#3197bc"/>
  <rect id="長方形_4" data-name="長方形 4" width="6.686" height="40.372" transform="translate(147.346 26.424)" fill="#3197bc"/>
  <path id="パス_12" data-name="パス 12" d="M251.757,79.916h6.686V62.485h14.292v-5.96H258.442V45.566h15.47V39.544H251.757Z" transform="translate(-86.809 -13.12)" fill="#3197bc"/>
  <path id="パス_13" data-name="パス 13" d="M306.519,61.855h14.688V55.893H306.519V45.566h15.525V39.544H299.834V79.916h23.055V73.9h-16.37Z" transform="translate(-103.386 -13.12)" fill="#3197bc"/>
  <g id="グループ_2" data-name="グループ 2">
    <g id="グループ_1" data-name="グループ 1" clip-path="url(#clip-path)">
      <path id="パス_14" data-name="パス 14" d="M400.092,44.164c-3.573-3.395-8.778-5.046-15.914-5.046a69.652,69.652,0,0,0-10.508.809l-.772.116V79.56l.8.1a79,79,0,0,0,8.961.46c7.617,0,13.617-2.01,17.345-5.814,3.729-3.736,5.7-9.145,5.7-15.626,0-6.143-1.893-11.026-5.618-14.511M383.617,74.272a35.907,35.907,0,0,1-4.029-.178V45.276a28.179,28.179,0,0,1,4.812-.366c4.806,0,8.493,1.278,10.948,3.8,2.316,2.377,3.48,5.785,3.452,10.132,0,9.95-5.394,15.43-15.182,15.43" transform="translate(-128.58 -12.979)" fill="#3197bc"/>
      <path id="パス_15" data-name="パス 15" d="M442.987,61.855h14.683V55.893H442.987V45.566h15.526V39.544H436.3V79.916h23.055V73.9H442.987Z" transform="translate(-150.441 -13.12)" fill="#3197bc"/>
      <path id="パス_16" data-name="パス 16" d="M496.279,55.987h0c-5.31-2.1-6.932-3.632-6.932-6.567,0-2.418,1.923-4.857,6.214-4.857a13.874,13.874,0,0,1,6.743,1.719l.948.526,1.928-5.826-.654-.371a17.5,17.5,0,0,0-8.8-2.01C488,38.6,482.6,43.285,482.6,49.987c0,5.432,3.367,9.178,10.581,11.789,4.81,1.887,6.52,3.664,6.52,6.788,0,3.485-2.681,5.652-7,5.652a16.167,16.167,0,0,1-8.272-2.382l-1-.627-1.761,5.977.556.376c2.271,1.551,6.539,2.675,10.14,2.675,10.429,0,14.134-6.5,14.134-12.069,0-5.794-2.963-9.322-10.221-12.18" transform="translate(-166.086 -12.807)" fill="#3197bc"/>
      <rect id="長方形_5" data-name="長方形 5" width="6.689" height="40.372" transform="translate(349.477 26.424)" fill="#3197bc"/>
      <path id="パス_17" data-name="パス 17" d="M575.4,63.482h7.679v9.954a16.581,16.581,0,0,1-5.593.722c-8.432,0-13.672-5.6-13.672-14.625,0-8.982,5.477-14.567,14.287-14.567a18.194,18.194,0,0,1,7.982,1.578l.943.428,1.686-5.823-.689-.341a24.167,24.167,0,0,0-9.813-1.862c-12.719,0-21.3,8.363-21.363,20.812,0,6.071,2.018,11.541,5.544,15.017,3.7,3.6,8.524,5.343,14.753,5.343a35.3,35.3,0,0,0,11.915-2.17l.595-.219V57.639H575.4Z" transform="translate(-192.008 -12.922)" fill="#3197bc"/>
      <path id="パス_18" data-name="パス 18" d="M645.716,39.544V56.59c0,4.6.085,8.22.274,11.614-1.46-2.871-3.085-5.75-4.943-8.74l-12.369-19.92h-6.732V79.916h6.409V62.533c0-4.716-.063-8.438-.2-11.983,1.43,2.768,3.167,5.8,5.367,9.386l12.266,19.98h6.338V39.544Z" transform="translate(-214.455 -13.12)" fill="#3197bc"/>
      <path id="パス_19" data-name="パス 19" d="M12.768,73.827V0H0V86.846H30.287V73.827Z" transform="translate(0 0)" fill="#3197bc"/>
      <path id="パス_20" data-name="パス 20" d="M55.764,0H38.245V13.023H55.764c16.436,0,29.812,13.639,29.812,30.4s-13.376,30.4-29.812,30.4V86.846c23.479,0,42.578-19.479,42.578-43.419S79.243,0,55.764,0" transform="translate(-13.187)" fill="#3197bc"/>
    </g>
  </g>
</svg>
