<svg id="LOGO" xmlns="http://www.w3.org/2000/svg" xmlns:xlink="http://www.w3.org/1999/xlink" width="226.006" height="43.968" viewBox="0 0 226.006 43.968">
  <defs>
    <clipPath id="clip-path">
      <rect id="長方形_6" data-name="長方形 6" width="226.006" height="43.968" fill="#fff"/>
    </clipPath>
  </defs>
  <path id="パス_11" data-name="パス 11" d="M181.548,39.544H178.1V59.984h11.789V56.937h-8.336Z" transform="translate(-117.84 -26.166)" fill="#fff"/>
  <rect id="長方形_4" data-name="長方形 4" width="3.453" height="20.439" transform="translate(76.088 13.378)" fill="#fff"/>
  <path id="パス_12" data-name="パス 12" d="M251.757,59.983h3.452V51.159h7.38V48.141h-7.38V42.593H263.2V39.544H251.757Z" transform="translate(-166.58 -26.166)" fill="#fff"/>
  <path id="パス_13" data-name="パス 13" d="M303.286,50.84h7.585V47.821h-7.585V42.593H311.3V39.544H299.834V59.983h11.905V56.937h-8.453Z" transform="translate(-198.391 -26.166)" fill="#fff"/>
  <g id="グループ_2" data-name="グループ 2">
    <g id="グループ_1" data-name="グループ 1" clip-path="url(#clip-path)">
      <path id="パス_14" data-name="パス 14" d="M386.941,41.673c-1.845-1.719-4.533-2.555-8.218-2.555a36.671,36.671,0,0,0-5.426.41l-.4.059V59.593l.414.049a41.6,41.6,0,0,0,4.627.233c3.933,0,7.032-1.018,8.957-2.944a10.773,10.773,0,0,0,2.945-7.911,9.513,9.513,0,0,0-2.9-7.346m-8.508,15.243a18.91,18.91,0,0,1-2.08-.09V42.235a14.836,14.836,0,0,1,2.485-.185,7.672,7.672,0,0,1,5.653,1.924,6.924,6.924,0,0,1,1.782,5.13c0,5.037-2.785,7.812-7.84,7.812" transform="translate(-246.736 -25.884)" fill="#fff"/>
      <path id="パス_15" data-name="パス 15" d="M439.753,50.84h7.582V47.821h-7.582V42.593h8.017V39.544H436.3V59.983H448.2V56.937h-8.452Z" transform="translate(-288.686 -26.166)" fill="#fff"/>
      <path id="パス_16" data-name="パス 16" d="M489.214,47.4h0c-2.742-1.062-3.58-1.839-3.58-3.325,0-1.224.993-2.459,3.209-2.459a7.275,7.275,0,0,1,3.482.87l.49.266,1-2.95-.338-.188A9.18,9.18,0,0,0,488.93,38.6c-3.99,0-6.778,2.371-6.778,5.765,0,2.75,1.739,4.647,5.464,5.968,2.484.955,3.367,1.855,3.367,3.436,0,1.765-1.384,2.862-3.615,2.862a8.472,8.472,0,0,1-4.272-1.206l-.516-.317-.909,3.026.287.19a10.593,10.593,0,0,0,5.236,1.354c5.385,0,7.3-3.292,7.3-6.11,0-2.933-1.53-4.719-5.278-6.166" transform="translate(-318.707 -25.542)" fill="#fff"/>
      <rect id="長方形_5" data-name="長方形 5" width="3.454" height="20.439" transform="translate(180.465 13.378)" fill="#fff"/>
      <path id="パス_17" data-name="パス 17" d="M566.427,51.369h3.966v5.039a8.721,8.721,0,0,1-2.888.365c-4.354,0-7.06-2.837-7.06-7.4,0-4.547,2.828-7.375,7.378-7.375a9.554,9.554,0,0,1,4.122.8l.487.217.871-2.948-.356-.173a12.694,12.694,0,0,0-5.067-.943c-6.568,0-11,4.234-11.032,10.536a10.53,10.53,0,0,0,2.863,7.6,10.488,10.488,0,0,0,7.618,2.705,18.552,18.552,0,0,0,6.153-1.1l.307-.111V48.41h-7.361Z" transform="translate(-368.449 -25.771)" fill="#fff"/>
      <path id="パス_18" data-name="パス 18" d="M634.221,39.544v8.63c0,2.329.044,4.161.142,5.88-.754-1.454-1.593-2.911-2.553-4.425l-6.387-10.085h-3.476V59.983h3.31v-8.8c0-2.387-.032-4.272-.1-6.067.738,1.4,1.635,2.938,2.772,4.752l6.334,10.115h3.273V39.544Z" transform="translate(-411.523 -26.166)" fill="#fff"/>
      <path id="パス_19" data-name="パス 19" d="M6.593,37.377V0H0V43.968H15.64V37.377Z" transform="translate(0 0)" fill="#fff"/>
      <path id="パス_20" data-name="パス 20" d="M47.292,0H38.245V6.593h9.047a15.392,15.392,0,1,1,0,30.783v6.591A21.984,21.984,0,1,0,47.292,0" transform="translate(-25.306)" fill="#fff"/>
    </g>
  </g>
</svg>
