<svg xmlns="http://www.w3.org/2000/svg" width="21.249" height="17"><path data-name="パス 11240" d="M7.437 8.5a4.25 4.25 0 004.25-4.25A4.25 4.25 0 007.437 0a4.25 4.25 0 00-4.25 4.25 4.25 4.25 0 004.25 4.25zm2.975 1.063h-.554a5.786 5.786 0 01-2.421.531 5.8 5.8 0 01-2.421-.531h-.554A4.464 4.464 0 000 14.025v1.381A1.594 1.594 0 001.594 17h9.131a1.594 1.594 0 01-.09-.707l.226-2.018.04-.369.262-.262 2.562-2.569a4.417 4.417 0 00-3.313-1.512zm1.5 4.824l-.221 2.025a.529.529 0 00.584.584l2.022-.221 4.579-4.583-2.381-2.38zm9.1-5.459L19.759 7.67a.8.8 0 00-1.122 0l-1.255 1.255-.136.136 2.379 2.381 1.388-1.388a.8.8 0 00.005-1.126z" fill="#fff"/></svg>