<svg xmlns="http://www.w3.org/2000/svg" viewBox="0 0 14.88 17"><path d="M14.88 12.75v-2.66c0-.88-.71-1.59-1.59-1.59h-.53V3.72h-2.12V8.5H8.52V3.72H6.4V8.5H4.28V3.72H2.15V8.5h-.53c-.88 0-1.59.71-1.59 1.59v2.66c.93 0 1.04-1.06 2.48-1.06s1.55 1.06 2.48 1.06 1.05-1.06 2.47-1.06 1.56 1.06 2.48 1.06 1.04-1.06 2.48-1.06 1.54 1.06 2.47 1.06zm0 4.25v-3.19c-1.44 0-1.56-1.06-2.47-1.06s-1.04 1.06-2.48 1.06-1.55-1.06-2.48-1.06-1.05 1.06-2.47 1.06-1.55-1.06-2.48-1.06-1.06 1.06-2.5 1.06V17h14.87zM3.19 3.19c.59 0 1.06-.45 1.06-1.33S3.59 0 3.19 0c0 1.36-1.06 1.1-1.06 2.12 0 .58.47 1.06 1.06 1.06zm4.25 0c.59 0 1.06-.45 1.06-1.33S7.84 0 7.44 0c0 1.36-1.06 1.1-1.06 2.12 0 .58.47 1.06 1.05 1.06zm4.25 0c.59 0 1.06-.45 1.06-1.33S12.09 0 11.69 0c0 1.36-1.06 1.1-1.06 2.12 0 .58.47 1.06 1.06 1.06z" fill="#c5dbe3"/></svg>