<svg xmlns="http://www.w3.org/2000/svg" width="15" height="20"><path data-name="パス 41" d="M3.75 9.531a.47.47 0 00.469.469h1.562a.47.47 0 00.469-.469V7.969a.47.47 0 00-.469-.469H4.219a.47.47 0 00-.469.469zm2.5 3.75v-1.562a.47.47 0 00-.469-.469H4.219a.47.47 0 00-.469.469v1.563a.47.47 0 00.469.469h1.562a.47.47 0 00.469-.47zM4.219 6.25h1.562a.47.47 0 00.469-.469V4.219a.47.47 0 00-.469-.469H4.219a.47.47 0 00-.469.469v1.563a.47.47 0 00.469.468zM12.5 0h-10A2.5 2.5 0 000 2.5v16.563a.938.938 0 001.875 0V2.5a.625.625 0 01.625-.625h10a.625.625 0 01.625.625v16.563a.938.938 0 001.875 0V2.5A2.5 2.5 0 0012.5 0zm-1.719 3.75H9.219a.47.47 0 00-.469.469v1.563a.47.47 0 00.469.469h1.563a.47.47 0 00.469-.469V4.22a.47.47 0 00-.47-.47zm0 3.75c-1.82 0-2.031.211-2.031.469v1.563a.47.47 0 00.469.469h1.563a.47.47 0 00.469-.469V7.969a.47.47 0 00-.47-.469zm0 3.75H9.219a.47.47 0 00-.469.469c0 1.82.211 2.031.469 2.031h1.563a.47.47 0 00.469-.469v-1.562a.47.47 0 00-.47-.469zM7.469 15a1.927 1.927 0 00-1.844 1.957v2.106a.935.935 0 00.938.938h1.875a.937.937 0 00.938-.937v-2.133A1.924 1.924 0 007.469 15z" fill="#056c91"/></svg>