<svg xmlns="http://www.w3.org/2000/svg" width="226.006" height="43.968"><defs><clipPath id="a"><path data-name="長方形 6" fill="#fff" d="M0 0h226.006v43.968H0z"/></clipPath></defs><path data-name="パス 11" d="M63.708 13.378H60.26v20.44h11.789v-3.047h-8.336z" fill="#fff"/><path data-name="長方形 4" fill="#fff" d="M76.088 13.378h3.453v20.439h-3.453z"/><path data-name="パス 12" d="M85.177 33.817h3.452v-8.824h7.38v-3.018h-7.38v-5.548h7.991v-3.049H85.177z" fill="#fff"/><path data-name="パス 13" d="M104.895 24.674h7.585v-3.019h-7.585v-5.228h8.014v-3.049h-11.466v20.439h11.905v-3.046h-8.453z" fill="#fff"/><g data-name="グループ 2"><g data-name="グループ 1" clip-path="url(#a)" fill="#fff"><path data-name="パス 14" d="M140.205 15.789c-1.845-1.719-4.533-2.555-8.218-2.555a36.671 36.671 0 00-5.426.41l-.4.059v20.006l.414.049a41.6 41.6 0 004.627.233c3.933 0 7.032-1.018 8.957-2.944a10.773 10.773 0 002.945-7.911 9.513 9.513 0 00-2.9-7.346m-8.508 15.243a18.91 18.91 0 01-2.08-.09V16.351a14.836 14.836 0 012.485-.185 7.672 7.672 0 015.653 1.924 6.924 6.924 0 011.782 5.13c0 5.037-2.785 7.812-7.84 7.812"/><path data-name="パス 15" d="M151.067 24.674h7.582v-3.019h-7.582v-5.228h8.017v-3.049h-11.47v20.439h11.9v-3.046h-8.452z"/><path data-name="パス 16" d="M170.507 21.858c-2.742-1.062-3.58-1.839-3.58-3.325 0-1.224.993-2.459 3.209-2.459a7.275 7.275 0 013.482.87l.49.266 1-2.95-.338-.188a9.18 9.18 0 00-4.547-1.014c-3.99 0-6.778 2.371-6.778 5.765 0 2.75 1.739 4.647 5.464 5.968 2.484.955 3.367 1.855 3.367 3.436 0 1.765-1.384 2.862-3.615 2.862a8.472 8.472 0 01-4.272-1.206l-.516-.317-.909 3.026.287.19a10.593 10.593 0 005.236 1.354c5.385 0 7.3-3.292 7.3-6.11 0-2.933-1.53-4.719-5.278-6.166"/><path data-name="長方形 5" d="M180.465 13.378h3.454v20.439h-3.454z"/><path data-name="パス 17" d="M197.978 25.598h3.966v5.039a8.721 8.721 0 01-2.888.365c-4.354 0-7.06-2.837-7.06-7.4 0-4.547 2.828-7.375 7.378-7.375a9.554 9.554 0 014.122.8l.487.217.871-2.948-.356-.173a12.694 12.694 0 00-5.067-.943c-6.568 0-11 4.234-11.032 10.536a10.53 10.53 0 002.863 7.6 10.488 10.488 0 007.618 2.705 18.552 18.552 0 006.153-1.1l.307-.111V22.639h-7.361z"/><path data-name="パス 18" d="M222.698 13.378v8.63c0 2.329.044 4.161.142 5.88a58.6 58.6 0 00-2.553-4.425L213.9 13.378h-3.476v20.439h3.31v-8.8c0-2.387-.032-4.272-.1-6.067.738 1.4 1.635 2.938 2.772 4.752l6.334 10.115h3.273V13.378z"/><path data-name="パス 19" d="M6.593 37.377V0H0v43.968h15.64v-6.591z"/><path data-name="パス 20" d="M21.986 0h-9.047v6.593h9.047a15.392 15.392 0 110 30.783v6.591a21.984 21.984 0 100-43.967"/></g></g></svg>